<svg width="38" height="35" viewBox="0 0 38 35" fill="none" xmlns="http://www.w3.org/2000/svg">
<path fill-rule="evenodd" clip-rule="evenodd" d="M26.5758 0H3.78622C3.28836 0.00128942 2.79572 0.100636 2.33693 0.292288C1.87813 0.483939 1.46234 0.764052 1.11371 1.11637C0.400625 1.82916 0.000360786 2.79225 0 3.7961V12.4761C1.14117 12.0274 2.36025 11.8058 3.58776 11.8238C4.70411 11.7724 5.81745 11.9761 6.84178 12.419C7.86611 12.862 8.77404 13.5324 9.49543 14.3785C10.217 13.5325 11.1249 12.8623 12.1492 12.4193C13.1735 11.9764 14.2868 11.7726 15.4031 11.8238C20.3878 11.8238 23.7106 14.9333 23.7106 20.8963V30.6316H18.9099V20.8944C18.9099 17.9339 17.802 16.5262 15.4031 16.5262C13.0389 16.5262 11.8943 17.933 11.8943 20.8944V30.6297H7.09459V20.8944C7.09459 17.9339 5.98666 16.5262 3.5868 16.5253C1.22354 16.5253 0.0790008 17.933 0.0790008 20.8944V31.2026C0.0786868 32.2064 0.47866 33.1697 1.19174 33.8824C1.54049 34.2348 1.95644 34.515 2.4154 34.7067C2.87437 34.8983 3.3672 34.9976 3.86522 34.9988H34.2128C34.7108 34.9976 35.2037 34.8983 35.6626 34.7067C36.1216 34.515 36.5376 34.2348 36.8863 33.8824C37.5994 33.1696 37.9996 32.2065 38 31.2026C36.9363 31.5894 35.8101 31.7798 34.6772 31.7642C29.7638 31.7642 26.5537 28.7283 26.5537 22.6917V12.9584H31.3534V22.6936C31.3534 25.6933 32.3505 27.0618 34.6772 27.0618C37.0038 27.0618 38 25.6923 38 22.6936V3.7961C37.9996 2.79225 37.5994 1.82916 36.8863 1.11637C36.5377 0.764052 36.1219 0.483939 35.6631 0.292288C35.2043 0.100636 34.7116 0.00128942 34.2138 0H26.5758Z" fill="#32C832"/>
</svg>
